G04 #@! TF.GenerationSoftware,KiCad,Pcbnew,(6.0.5)*
G04 #@! TF.CreationDate,2022-09-09T15:45:55+09:00*
G04 #@! TF.ProjectId,UnitBase,556e6974-4261-4736-952e-6b696361645f,rev?*
G04 #@! TF.SameCoordinates,Original*
G04 #@! TF.FileFunction,Copper,L1,Top*
G04 #@! TF.FilePolarity,Positive*
%FSLAX46Y46*%
G04 Gerber Fmt 4.6, Leading zero omitted, Abs format (unit mm)*
G04 Created by KiCad (PCBNEW (6.0.5)) date 2022-09-09 15:45:55*
%MOMM*%
%LPD*%
G01*
G04 APERTURE LIST*
G04 Aperture macros list*
%AMRoundRect*
0 Rectangle with rounded corners*
0 $1 Rounding radius*
0 $2 $3 $4 $5 $6 $7 $8 $9 X,Y pos of 4 corners*
0 Add a 4 corners polygon primitive as box body*
4,1,4,$2,$3,$4,$5,$6,$7,$8,$9,$2,$3,0*
0 Add four circle primitives for the rounded corners*
1,1,$1+$1,$2,$3*
1,1,$1+$1,$4,$5*
1,1,$1+$1,$6,$7*
1,1,$1+$1,$8,$9*
0 Add four rect primitives between the rounded corners*
20,1,$1+$1,$2,$3,$4,$5,0*
20,1,$1+$1,$4,$5,$6,$7,0*
20,1,$1+$1,$6,$7,$8,$9,0*
20,1,$1+$1,$8,$9,$2,$3,0*%
G04 Aperture macros list end*
G04 #@! TA.AperFunction,ComponentPad*
%ADD10C,1.700000*%
G04 #@! TD*
G04 #@! TA.AperFunction,ComponentPad*
%ADD11O,1.700000X1.700000*%
G04 #@! TD*
G04 #@! TA.AperFunction,ComponentPad*
%ADD12RoundRect,0.425000X0.425000X0.425000X-0.425000X0.425000X-0.425000X-0.425000X0.425000X-0.425000X0*%
G04 #@! TD*
G04 #@! TA.AperFunction,ComponentPad*
%ADD13RoundRect,0.425000X-0.425000X0.425000X-0.425000X-0.425000X0.425000X-0.425000X0.425000X0.425000X0*%
G04 #@! TD*
G04 #@! TA.AperFunction,ComponentPad*
%ADD14R,1.500000X1.500000*%
G04 #@! TD*
G04 #@! TA.AperFunction,ComponentPad*
%ADD15C,1.300000*%
G04 #@! TD*
G04 #@! TA.AperFunction,ComponentPad*
%ADD16C,1.500000*%
G04 #@! TD*
G04 #@! TA.AperFunction,Conductor*
%ADD17C,1.000000*%
G04 #@! TD*
G04 APERTURE END LIST*
D10*
X142240000Y-86360000D03*
D11*
X142240000Y-83820000D03*
X142240000Y-81280000D03*
X142240000Y-78740000D03*
D10*
X144780000Y-86360000D03*
D11*
X144780000Y-83820000D03*
X144780000Y-81280000D03*
X144780000Y-78740000D03*
D10*
X147320000Y-86360000D03*
D11*
X147320000Y-83820000D03*
X147320000Y-81280000D03*
X147320000Y-78740000D03*
D10*
X149860000Y-86360000D03*
D11*
X149860000Y-83820000D03*
X149860000Y-81280000D03*
X149860000Y-78740000D03*
D10*
X152400000Y-86360000D03*
D11*
X152400000Y-83820000D03*
X152400000Y-81280000D03*
X152400000Y-78740000D03*
D12*
X154940000Y-86360000D03*
X154940000Y-83820000D03*
X154940000Y-81280000D03*
X154940000Y-78740000D03*
X157480000Y-86360000D03*
X157480000Y-83820000D03*
X157480000Y-81280000D03*
X157480000Y-78740000D03*
D10*
X157480000Y-91440000D03*
D11*
X157480000Y-93980000D03*
D10*
X142240000Y-91440000D03*
D11*
X142240000Y-93980000D03*
D13*
X154940000Y-91440000D03*
X152400000Y-91440000D03*
X149860000Y-91440000D03*
X147320000Y-91440000D03*
D11*
X144780000Y-91440000D03*
D10*
X142240000Y-88900000D03*
D11*
X144780000Y-88900000D03*
X147320000Y-88900000D03*
X149860000Y-88900000D03*
X152400000Y-88900000D03*
X154940000Y-88900000D03*
X157480000Y-88900000D03*
D10*
X142240000Y-76200000D03*
D11*
X144780000Y-76200000D03*
X147320000Y-76200000D03*
X149860000Y-76200000D03*
X152400000Y-76200000D03*
X154940000Y-76200000D03*
X157480000Y-76200000D03*
D10*
X142240000Y-73660000D03*
D11*
X144780000Y-73660000D03*
X147320000Y-73660000D03*
X149860000Y-73660000D03*
X152400000Y-73660000D03*
X154940000Y-73660000D03*
X157480000Y-73660000D03*
D10*
X142240000Y-71120000D03*
D11*
X144780000Y-71120000D03*
X147320000Y-71120000D03*
X149860000Y-71120000D03*
X152400000Y-71120000D03*
X154940000Y-71120000D03*
X157480000Y-71120000D03*
D14*
X153025000Y-105185000D03*
D15*
X151025000Y-105185000D03*
X149025000Y-105185000D03*
D16*
X147025000Y-105185000D03*
D13*
X154940000Y-93980000D03*
X152400000Y-93980000D03*
X149860000Y-93980000D03*
X147320000Y-93980000D03*
D11*
X144780000Y-93980000D03*
D17*
X157480000Y-78740000D02*
X154940000Y-78740000D01*
X157480000Y-81280000D02*
X154940000Y-81280000D01*
X157480000Y-83820000D02*
X154940000Y-83820000D01*
X157480000Y-86360000D02*
X154940000Y-86360000D01*
X147320000Y-91440000D02*
X147320000Y-93980000D01*
X149860000Y-93980000D02*
X149860000Y-91440000D01*
X152400000Y-93980000D02*
X152400000Y-91440000D01*
X154940000Y-93980000D02*
X154940000Y-91440000D01*
G04 #@! TA.AperFunction,Conductor*
G36*
X157505304Y-68488502D02*
G01*
X157526278Y-68505405D01*
X159754595Y-70733722D01*
X159788621Y-70796034D01*
X159791500Y-70822817D01*
X159791500Y-97275500D01*
X159771498Y-97343621D01*
X159717842Y-97390114D01*
X159665500Y-97401500D01*
X158053250Y-97401500D01*
X158032345Y-97399754D01*
X158017344Y-97397230D01*
X158017341Y-97397230D01*
X158012552Y-97396424D01*
X158006415Y-97396349D01*
X158004863Y-97396330D01*
X158004859Y-97396330D01*
X158000000Y-97396271D01*
X157995184Y-97396961D01*
X157990323Y-97397278D01*
X157990320Y-97397225D01*
X157987472Y-97397495D01*
X157616776Y-97415153D01*
X157616772Y-97415153D01*
X157613778Y-97415296D01*
X157610812Y-97415722D01*
X157610806Y-97415723D01*
X157234028Y-97469896D01*
X157234023Y-97469897D01*
X157231053Y-97470324D01*
X157228141Y-97471031D01*
X157228133Y-97471032D01*
X156858206Y-97560775D01*
X156855292Y-97561482D01*
X156852465Y-97562460D01*
X156852463Y-97562461D01*
X156492731Y-97686965D01*
X156492722Y-97686969D01*
X156489898Y-97687946D01*
X156138179Y-97848571D01*
X155803321Y-98041901D01*
X155488357Y-98266186D01*
X155452649Y-98297127D01*
X155224573Y-98494757D01*
X155196139Y-98519395D01*
X154929312Y-98799234D01*
X154690295Y-99103170D01*
X154481250Y-99428449D01*
X154479881Y-99431105D01*
X154479879Y-99431108D01*
X154468004Y-99454142D01*
X154304072Y-99772126D01*
X154302951Y-99774925D01*
X154302951Y-99774926D01*
X154184740Y-100070205D01*
X154160365Y-100131090D01*
X154051430Y-100502087D01*
X154050864Y-100505024D01*
X154050862Y-100505032D01*
X154004573Y-100745206D01*
X153978255Y-100881760D01*
X153941500Y-101266670D01*
X153941500Y-101653330D01*
X153978255Y-102038240D01*
X153978822Y-102041182D01*
X153978823Y-102041189D01*
X154035820Y-102336919D01*
X154051430Y-102417913D01*
X154160365Y-102788910D01*
X154161480Y-102791695D01*
X154161481Y-102791698D01*
X154302951Y-103145074D01*
X154304072Y-103147874D01*
X154481250Y-103491551D01*
X154690295Y-103816830D01*
X154929312Y-104120766D01*
X155196139Y-104400605D01*
X155198408Y-104402571D01*
X155198411Y-104402574D01*
X155317563Y-104505820D01*
X155488357Y-104653814D01*
X155803321Y-104878099D01*
X156138179Y-105071429D01*
X156489898Y-105232054D01*
X156492722Y-105233031D01*
X156492731Y-105233035D01*
X156852463Y-105357539D01*
X156855292Y-105358518D01*
X156858205Y-105359225D01*
X156858206Y-105359225D01*
X157228133Y-105448968D01*
X157228141Y-105448969D01*
X157231053Y-105449676D01*
X157234023Y-105450103D01*
X157234028Y-105450104D01*
X157610806Y-105504277D01*
X157610812Y-105504278D01*
X157613778Y-105504704D01*
X157616772Y-105504847D01*
X157616776Y-105504847D01*
X157730571Y-105510268D01*
X157971060Y-105521724D01*
X157977789Y-105522448D01*
X157977799Y-105522334D01*
X157982648Y-105522769D01*
X157987448Y-105523576D01*
X157993914Y-105523655D01*
X157995140Y-105523670D01*
X157995143Y-105523670D01*
X158000000Y-105523729D01*
X158027624Y-105519773D01*
X158045486Y-105518500D01*
X159665500Y-105518500D01*
X159733621Y-105538502D01*
X159780114Y-105592158D01*
X159791500Y-105644500D01*
X159791500Y-108897182D01*
X159771498Y-108965303D01*
X159754595Y-108986277D01*
X157526278Y-111214595D01*
X157463966Y-111248620D01*
X157437183Y-111251500D01*
X142562818Y-111251500D01*
X142494697Y-111231498D01*
X142473723Y-111214595D01*
X140245405Y-108986278D01*
X140211380Y-108923966D01*
X140208500Y-108897183D01*
X140208500Y-106235161D01*
X146339393Y-106235161D01*
X146348687Y-106247175D01*
X146389088Y-106275464D01*
X146398584Y-106280947D01*
X146588113Y-106369326D01*
X146598405Y-106373072D01*
X146800401Y-106427196D01*
X146811196Y-106429099D01*
X147019525Y-106447326D01*
X147030475Y-106447326D01*
X147238804Y-106429099D01*
X147249599Y-106427196D01*
X147451595Y-106373072D01*
X147461887Y-106369326D01*
X147651416Y-106280947D01*
X147660912Y-106275464D01*
X147702148Y-106246590D01*
X147710523Y-106236112D01*
X147703457Y-106222668D01*
X147037811Y-105557021D01*
X147023868Y-105549408D01*
X147022034Y-105549539D01*
X147015420Y-105553790D01*
X146345820Y-106223391D01*
X146339393Y-106235161D01*
X140208500Y-106235161D01*
X140208500Y-105644500D01*
X140228502Y-105576379D01*
X140282158Y-105529886D01*
X140334500Y-105518500D01*
X141946750Y-105518500D01*
X141967655Y-105520246D01*
X141982656Y-105522770D01*
X141982659Y-105522770D01*
X141987448Y-105523576D01*
X141993585Y-105523651D01*
X141995137Y-105523670D01*
X141995141Y-105523670D01*
X142000000Y-105523729D01*
X142004816Y-105523039D01*
X142009677Y-105522722D01*
X142009680Y-105522775D01*
X142012528Y-105522505D01*
X142383224Y-105504847D01*
X142383228Y-105504847D01*
X142386222Y-105504704D01*
X142389188Y-105504278D01*
X142389194Y-105504277D01*
X142765972Y-105450104D01*
X142765977Y-105450103D01*
X142768947Y-105449676D01*
X142771859Y-105448969D01*
X142771867Y-105448968D01*
X143141794Y-105359225D01*
X143141795Y-105359225D01*
X143144708Y-105358518D01*
X143147537Y-105357539D01*
X143507269Y-105233035D01*
X143507278Y-105233031D01*
X143510102Y-105232054D01*
X143601147Y-105190475D01*
X145762674Y-105190475D01*
X145780901Y-105398804D01*
X145782804Y-105409599D01*
X145836928Y-105611595D01*
X145840674Y-105621887D01*
X145929054Y-105811417D01*
X145934534Y-105820907D01*
X145963411Y-105862149D01*
X145973887Y-105870523D01*
X145987334Y-105863455D01*
X146652979Y-105197811D01*
X146660592Y-105183868D01*
X146660461Y-105182034D01*
X146656210Y-105175420D01*
X145986609Y-104505820D01*
X145974839Y-104499393D01*
X145962824Y-104508689D01*
X145934534Y-104549093D01*
X145929054Y-104558583D01*
X145840674Y-104748113D01*
X145836928Y-104758405D01*
X145782804Y-104960401D01*
X145780901Y-104971196D01*
X145762674Y-105179525D01*
X145762674Y-105190475D01*
X143601147Y-105190475D01*
X143861821Y-105071429D01*
X144196679Y-104878099D01*
X144511643Y-104653814D01*
X144682437Y-104505820D01*
X144801589Y-104402574D01*
X144801592Y-104402571D01*
X144803861Y-104400605D01*
X145058177Y-104133887D01*
X146339477Y-104133887D01*
X146346545Y-104147334D01*
X147025000Y-104825790D01*
X148063388Y-105864177D01*
X148075017Y-105870527D01*
X148117528Y-105908393D01*
X148140296Y-105940609D01*
X148144436Y-105944642D01*
X148266786Y-106063830D01*
X148292809Y-106089181D01*
X148297605Y-106092386D01*
X148297608Y-106092388D01*
X148365450Y-106137718D01*
X148469843Y-106207471D01*
X148475146Y-106209749D01*
X148475149Y-106209751D01*
X148563888Y-106247876D01*
X148665470Y-106291519D01*
X148741316Y-106308681D01*
X148867501Y-106337234D01*
X148867506Y-106337235D01*
X148873138Y-106338509D01*
X148878909Y-106338736D01*
X148878911Y-106338736D01*
X148940252Y-106341146D01*
X149085891Y-106346869D01*
X149091600Y-106346041D01*
X149091604Y-106346041D01*
X149290890Y-106317145D01*
X149290894Y-106317144D01*
X149296605Y-106316316D01*
X149498223Y-106247876D01*
X149683993Y-106143840D01*
X149847693Y-106007693D01*
X149907410Y-105935891D01*
X149926508Y-105912928D01*
X149985445Y-105873344D01*
X150056427Y-105871907D01*
X150116918Y-105909075D01*
X150126278Y-105920775D01*
X150136962Y-105935892D01*
X150140296Y-105940609D01*
X150144432Y-105944638D01*
X150266786Y-106063830D01*
X150292809Y-106089181D01*
X150297605Y-106092386D01*
X150297608Y-106092388D01*
X150365450Y-106137718D01*
X150469843Y-106207471D01*
X150475146Y-106209749D01*
X150475149Y-106209751D01*
X150563888Y-106247876D01*
X150665470Y-106291519D01*
X150741316Y-106308681D01*
X150867501Y-106337234D01*
X150867506Y-106337235D01*
X150873138Y-106338509D01*
X150878909Y-106338736D01*
X150878911Y-106338736D01*
X150940252Y-106341146D01*
X151085891Y-106346869D01*
X151091600Y-106346041D01*
X151091604Y-106346041D01*
X151290890Y-106317145D01*
X151290894Y-106317144D01*
X151296605Y-106316316D01*
X151498223Y-106247876D01*
X151503255Y-106245058D01*
X151503266Y-106245053D01*
X151666652Y-106153552D01*
X151735860Y-106137718D01*
X151802642Y-106161815D01*
X151829043Y-106187920D01*
X151911739Y-106298261D01*
X152028295Y-106385615D01*
X152164684Y-106436745D01*
X152226866Y-106443500D01*
X153823134Y-106443500D01*
X153885316Y-106436745D01*
X154021705Y-106385615D01*
X154138261Y-106298261D01*
X154225615Y-106181705D01*
X154276745Y-106045316D01*
X154283500Y-105983134D01*
X154283500Y-104386866D01*
X154276745Y-104324684D01*
X154225615Y-104188295D01*
X154138261Y-104071739D01*
X154021705Y-103984385D01*
X153885316Y-103933255D01*
X153823134Y-103926500D01*
X152517066Y-103926500D01*
X152448945Y-103906498D01*
X152402452Y-103852842D01*
X152392348Y-103782568D01*
X152421541Y-103718336D01*
X152460176Y-103673419D01*
X152625140Y-103481630D01*
X152765112Y-103277969D01*
X152826190Y-103189101D01*
X152826195Y-103189094D01*
X152828120Y-103186292D01*
X152829732Y-103183298D01*
X152829737Y-103183290D01*
X152996395Y-102873772D01*
X152998017Y-102870760D01*
X153132842Y-102538724D01*
X153143142Y-102502568D01*
X153190328Y-102336919D01*
X153231020Y-102194070D01*
X153291401Y-101840828D01*
X153293511Y-101806340D01*
X153313168Y-101484928D01*
X153313278Y-101483131D01*
X153313359Y-101460000D01*
X153293979Y-101102159D01*
X153236066Y-100748505D01*
X153140297Y-100403173D01*
X153137243Y-100395497D01*
X153009052Y-100073369D01*
X153007793Y-100070205D01*
X152977768Y-100013498D01*
X152841702Y-99756513D01*
X152841698Y-99756506D01*
X152840103Y-99753494D01*
X152639190Y-99456746D01*
X152617448Y-99431108D01*
X152411365Y-99188104D01*
X152407403Y-99183432D01*
X152147454Y-98936750D01*
X151862384Y-98719585D01*
X151859472Y-98717828D01*
X151859467Y-98717825D01*
X151558443Y-98536236D01*
X151558437Y-98536233D01*
X151555528Y-98534478D01*
X151306701Y-98418976D01*
X151233571Y-98385030D01*
X151233569Y-98385029D01*
X151230475Y-98383593D01*
X151060751Y-98326145D01*
X150894255Y-98269789D01*
X150894250Y-98269788D01*
X150891028Y-98268697D01*
X150692681Y-98224724D01*
X150544493Y-98191871D01*
X150544487Y-98191870D01*
X150541158Y-98191132D01*
X150537769Y-98190758D01*
X150537764Y-98190757D01*
X150188338Y-98152180D01*
X150188333Y-98152180D01*
X150184957Y-98151807D01*
X150181558Y-98151801D01*
X150181557Y-98151801D01*
X150012080Y-98151505D01*
X149826592Y-98151182D01*
X149713413Y-98163277D01*
X149473639Y-98188901D01*
X149473631Y-98188902D01*
X149470256Y-98189263D01*
X149120117Y-98265606D01*
X148780271Y-98379317D01*
X148777178Y-98380739D01*
X148777177Y-98380740D01*
X148691526Y-98420135D01*
X148454694Y-98529066D01*
X148147193Y-98713101D01*
X148144467Y-98715163D01*
X148144465Y-98715164D01*
X147920315Y-98884688D01*
X147861367Y-98929270D01*
X147600559Y-99175043D01*
X147367819Y-99447546D01*
X147365900Y-99450358D01*
X147365897Y-99450363D01*
X147348748Y-99475503D01*
X147165871Y-99743591D01*
X146997077Y-100059714D01*
X146863411Y-100392218D01*
X146862491Y-100395492D01*
X146862489Y-100395497D01*
X146809762Y-100583081D01*
X146766437Y-100737213D01*
X146707290Y-101090663D01*
X146686661Y-101448434D01*
X146687247Y-101460000D01*
X146704792Y-101806340D01*
X146761470Y-102160195D01*
X146856033Y-102505859D01*
X146987374Y-102839288D01*
X147153957Y-103156582D01*
X147155858Y-103159411D01*
X147155864Y-103159421D01*
X147235526Y-103277969D01*
X147353834Y-103454029D01*
X147584665Y-103728150D01*
X147679931Y-103819188D01*
X147705374Y-103843502D01*
X147740804Y-103905026D01*
X147737347Y-103975939D01*
X147696101Y-104033725D01*
X147630161Y-104060039D01*
X147565073Y-104048791D01*
X147461887Y-104000674D01*
X147451595Y-103996928D01*
X147249599Y-103942804D01*
X147238804Y-103940901D01*
X147030475Y-103922674D01*
X147019525Y-103922674D01*
X146811196Y-103940901D01*
X146800401Y-103942804D01*
X146598405Y-103996928D01*
X146588113Y-104000674D01*
X146398583Y-104089054D01*
X146389093Y-104094534D01*
X146347851Y-104123411D01*
X146339477Y-104133887D01*
X145058177Y-104133887D01*
X145070688Y-104120766D01*
X145309705Y-103816830D01*
X145518750Y-103491551D01*
X145695928Y-103147874D01*
X145697049Y-103145074D01*
X145838519Y-102791698D01*
X145838520Y-102791695D01*
X145839635Y-102788910D01*
X145948570Y-102417913D01*
X145964181Y-102336919D01*
X146021177Y-102041189D01*
X146021178Y-102041182D01*
X146021745Y-102038240D01*
X146058500Y-101653330D01*
X146058500Y-101266670D01*
X146021745Y-100881760D01*
X145995427Y-100745206D01*
X145949138Y-100505032D01*
X145949136Y-100505024D01*
X145948570Y-100502087D01*
X145839635Y-100131090D01*
X145815261Y-100070205D01*
X145697049Y-99774926D01*
X145697049Y-99774925D01*
X145695928Y-99772126D01*
X145531996Y-99454142D01*
X145520121Y-99431108D01*
X145520119Y-99431105D01*
X145518750Y-99428449D01*
X145309705Y-99103170D01*
X145070688Y-98799234D01*
X144803861Y-98519395D01*
X144775428Y-98494757D01*
X144547351Y-98297127D01*
X144511643Y-98266186D01*
X144196679Y-98041901D01*
X143861821Y-97848571D01*
X143510102Y-97687946D01*
X143507278Y-97686969D01*
X143507269Y-97686965D01*
X143147537Y-97562461D01*
X143147535Y-97562460D01*
X143144708Y-97561482D01*
X143141794Y-97560775D01*
X142771867Y-97471032D01*
X142771859Y-97471031D01*
X142768947Y-97470324D01*
X142765977Y-97469897D01*
X142765972Y-97469896D01*
X142389194Y-97415723D01*
X142389188Y-97415722D01*
X142386222Y-97415296D01*
X142383228Y-97415153D01*
X142383224Y-97415153D01*
X142269429Y-97409732D01*
X142028940Y-97398276D01*
X142022211Y-97397552D01*
X142022201Y-97397666D01*
X142017352Y-97397231D01*
X142012552Y-97396424D01*
X142006086Y-97396345D01*
X142004860Y-97396330D01*
X142004857Y-97396330D01*
X142000000Y-97396271D01*
X141985993Y-97398277D01*
X141972376Y-97400227D01*
X141954514Y-97401500D01*
X140334500Y-97401500D01*
X140266379Y-97381498D01*
X140219886Y-97327842D01*
X140208500Y-97275500D01*
X140208500Y-93946695D01*
X140877251Y-93946695D01*
X140877548Y-93951848D01*
X140877548Y-93951851D01*
X140883011Y-94046590D01*
X140890110Y-94169715D01*
X140891247Y-94174761D01*
X140891248Y-94174767D01*
X140911119Y-94262939D01*
X140939222Y-94387639D01*
X141023266Y-94594616D01*
X141074019Y-94677438D01*
X141137291Y-94780688D01*
X141139987Y-94785088D01*
X141286250Y-94953938D01*
X141458126Y-95096632D01*
X141651000Y-95209338D01*
X141859692Y-95289030D01*
X141864760Y-95290061D01*
X141864763Y-95290062D01*
X141972017Y-95311883D01*
X142078597Y-95333567D01*
X142083772Y-95333757D01*
X142083774Y-95333757D01*
X142296673Y-95341564D01*
X142296677Y-95341564D01*
X142301837Y-95341753D01*
X142306957Y-95341097D01*
X142306959Y-95341097D01*
X142518288Y-95314025D01*
X142518289Y-95314025D01*
X142523416Y-95313368D01*
X142528366Y-95311883D01*
X142732429Y-95250661D01*
X142732434Y-95250659D01*
X142737384Y-95249174D01*
X142937994Y-95150896D01*
X143119860Y-95021173D01*
X143278096Y-94863489D01*
X143316854Y-94809552D01*
X143408453Y-94682077D01*
X143409776Y-94683028D01*
X143456645Y-94639857D01*
X143526580Y-94627625D01*
X143592026Y-94655144D01*
X143619875Y-94686994D01*
X143679987Y-94785088D01*
X143826250Y-94953938D01*
X143998126Y-95096632D01*
X144191000Y-95209338D01*
X144399692Y-95289030D01*
X144404760Y-95290061D01*
X144404763Y-95290062D01*
X144512017Y-95311883D01*
X144618597Y-95333567D01*
X144623772Y-95333757D01*
X144623774Y-95333757D01*
X144836673Y-95341564D01*
X144836677Y-95341564D01*
X144841837Y-95341753D01*
X144846957Y-95341097D01*
X144846959Y-95341097D01*
X145058288Y-95314025D01*
X145058289Y-95314025D01*
X145063416Y-95313368D01*
X145068366Y-95311883D01*
X145272429Y-95250661D01*
X145272434Y-95250659D01*
X145277384Y-95249174D01*
X145477994Y-95150896D01*
X145659860Y-95021173D01*
X145818096Y-94863489D01*
X145851513Y-94816984D01*
X145907508Y-94773336D01*
X145978211Y-94766890D01*
X146041176Y-94799693D01*
X146066103Y-94833307D01*
X146105214Y-94910066D01*
X146112364Y-94921077D01*
X146227485Y-95063238D01*
X146236762Y-95072515D01*
X146378923Y-95187636D01*
X146389934Y-95194786D01*
X146552921Y-95277832D01*
X146565175Y-95282536D01*
X146742666Y-95330095D01*
X146753999Y-95332042D01*
X146827246Y-95337807D01*
X146832172Y-95338000D01*
X147047885Y-95338000D01*
X147063124Y-95333525D01*
X147064329Y-95332135D01*
X147066000Y-95324452D01*
X147066000Y-91312000D01*
X147086002Y-91243879D01*
X147139658Y-91197386D01*
X147192000Y-91186000D01*
X147448000Y-91186000D01*
X147516121Y-91206002D01*
X147562614Y-91259658D01*
X147574000Y-91312000D01*
X147574000Y-95319884D01*
X147578475Y-95335123D01*
X147579865Y-95336328D01*
X147587548Y-95337999D01*
X147807825Y-95337999D01*
X147812756Y-95337805D01*
X147886003Y-95332042D01*
X147897332Y-95330095D01*
X148074825Y-95282536D01*
X148087079Y-95277832D01*
X148250066Y-95194786D01*
X148261077Y-95187636D01*
X148403238Y-95072515D01*
X148412515Y-95063238D01*
X148491759Y-94965381D01*
X148550174Y-94925029D01*
X148621131Y-94922665D01*
X148682102Y-94959038D01*
X148687580Y-94965359D01*
X148771280Y-95068720D01*
X148923779Y-95192211D01*
X149098621Y-95281298D01*
X149104994Y-95283006D01*
X149104995Y-95283006D01*
X149282587Y-95330592D01*
X149282591Y-95330593D01*
X149288164Y-95332086D01*
X149293920Y-95332539D01*
X149367206Y-95338307D01*
X149367215Y-95338307D01*
X149369663Y-95338500D01*
X149859801Y-95338500D01*
X150350336Y-95338499D01*
X150400220Y-95334574D01*
X150426082Y-95332539D01*
X150426085Y-95332539D01*
X150431836Y-95332086D01*
X150556596Y-95298657D01*
X150615005Y-95283006D01*
X150615006Y-95283006D01*
X150621379Y-95281298D01*
X150796221Y-95192211D01*
X150948720Y-95068720D01*
X151032080Y-94965779D01*
X151090494Y-94925427D01*
X151161451Y-94923061D01*
X151222423Y-94959434D01*
X151227920Y-94965779D01*
X151311280Y-95068720D01*
X151463779Y-95192211D01*
X151638621Y-95281298D01*
X151644994Y-95283006D01*
X151644995Y-95283006D01*
X151822587Y-95330592D01*
X151822591Y-95330593D01*
X151828164Y-95332086D01*
X151833920Y-95332539D01*
X151907206Y-95338307D01*
X151907215Y-95338307D01*
X151909663Y-95338500D01*
X152399801Y-95338500D01*
X152890336Y-95338499D01*
X152940220Y-95334574D01*
X152966082Y-95332539D01*
X152966085Y-95332539D01*
X152971836Y-95332086D01*
X153096596Y-95298657D01*
X153155005Y-95283006D01*
X153155006Y-95283006D01*
X153161379Y-95281298D01*
X153336221Y-95192211D01*
X153488720Y-95068720D01*
X153572080Y-94965779D01*
X153630494Y-94925427D01*
X153701451Y-94923061D01*
X153762423Y-94959434D01*
X153767920Y-94965779D01*
X153851280Y-95068720D01*
X154003779Y-95192211D01*
X154178621Y-95281298D01*
X154184994Y-95283006D01*
X154184995Y-95283006D01*
X154362587Y-95330592D01*
X154362591Y-95330593D01*
X154368164Y-95332086D01*
X154373920Y-95332539D01*
X154447206Y-95338307D01*
X154447215Y-95338307D01*
X154449663Y-95338500D01*
X154939801Y-95338500D01*
X155430336Y-95338499D01*
X155480220Y-95334574D01*
X155506082Y-95332539D01*
X155506085Y-95332539D01*
X155511836Y-95332086D01*
X155636596Y-95298657D01*
X155695005Y-95283006D01*
X155695006Y-95283006D01*
X155701379Y-95281298D01*
X155876221Y-95192211D01*
X156028720Y-95068720D01*
X156152211Y-94916221D01*
X156177221Y-94867137D01*
X156193674Y-94834846D01*
X156242423Y-94783231D01*
X156311338Y-94766165D01*
X156378539Y-94789066D01*
X156401177Y-94809550D01*
X156421756Y-94833307D01*
X156522866Y-94950032D01*
X156522869Y-94950035D01*
X156526250Y-94953938D01*
X156698126Y-95096632D01*
X156891000Y-95209338D01*
X157099692Y-95289030D01*
X157104760Y-95290061D01*
X157104763Y-95290062D01*
X157212017Y-95311883D01*
X157318597Y-95333567D01*
X157323772Y-95333757D01*
X157323774Y-95333757D01*
X157536673Y-95341564D01*
X157536677Y-95341564D01*
X157541837Y-95341753D01*
X157546957Y-95341097D01*
X157546959Y-95341097D01*
X157758288Y-95314025D01*
X157758289Y-95314025D01*
X157763416Y-95313368D01*
X157768366Y-95311883D01*
X157972429Y-95250661D01*
X157972434Y-95250659D01*
X157977384Y-95249174D01*
X158177994Y-95150896D01*
X158359860Y-95021173D01*
X158518096Y-94863489D01*
X158556854Y-94809552D01*
X158645435Y-94686277D01*
X158648453Y-94682077D01*
X158669320Y-94639857D01*
X158745136Y-94486453D01*
X158745137Y-94486451D01*
X158747430Y-94481811D01*
X158812370Y-94268069D01*
X158841529Y-94046590D01*
X158843156Y-93980000D01*
X158824852Y-93757361D01*
X158770431Y-93540702D01*
X158681354Y-93335840D01*
X158582624Y-93183227D01*
X158562822Y-93152617D01*
X158562820Y-93152614D01*
X158560014Y-93148277D01*
X158409670Y-92983051D01*
X158405619Y-92979852D01*
X158405615Y-92979848D01*
X158238414Y-92847800D01*
X158238410Y-92847798D01*
X158234359Y-92844598D01*
X158193053Y-92821796D01*
X158143084Y-92771364D01*
X158128312Y-92701921D01*
X158153428Y-92635516D01*
X158180780Y-92608909D01*
X158224603Y-92577650D01*
X158359860Y-92481173D01*
X158518096Y-92323489D01*
X158556854Y-92269552D01*
X158645435Y-92146277D01*
X158648453Y-92142077D01*
X158669320Y-92099857D01*
X158745136Y-91946453D01*
X158745137Y-91946451D01*
X158747430Y-91941811D01*
X158812370Y-91728069D01*
X158841529Y-91506590D01*
X158843156Y-91440000D01*
X158824852Y-91217361D01*
X158770431Y-91000702D01*
X158681354Y-90795840D01*
X158582624Y-90643227D01*
X158562822Y-90612617D01*
X158562820Y-90612614D01*
X158560014Y-90608277D01*
X158409670Y-90443051D01*
X158405619Y-90439852D01*
X158405615Y-90439848D01*
X158238414Y-90307800D01*
X158238410Y-90307798D01*
X158234359Y-90304598D01*
X158193053Y-90281796D01*
X158143084Y-90231364D01*
X158128312Y-90161921D01*
X158153428Y-90095516D01*
X158180780Y-90068909D01*
X158227817Y-90035358D01*
X158359860Y-89941173D01*
X158518096Y-89783489D01*
X158577594Y-89700689D01*
X158645435Y-89606277D01*
X158648453Y-89602077D01*
X158669320Y-89559857D01*
X158745136Y-89406453D01*
X158745137Y-89406451D01*
X158747430Y-89401811D01*
X158812370Y-89188069D01*
X158841529Y-88966590D01*
X158843156Y-88900000D01*
X158824852Y-88677361D01*
X158770431Y-88460702D01*
X158681354Y-88255840D01*
X158560014Y-88068277D01*
X158409670Y-87903051D01*
X158377355Y-87877530D01*
X158311926Y-87825856D01*
X158270864Y-87767939D01*
X158267633Y-87697016D01*
X158303258Y-87635605D01*
X158332816Y-87614708D01*
X158382608Y-87589338D01*
X158416221Y-87572211D01*
X158568720Y-87448720D01*
X158692211Y-87296221D01*
X158781298Y-87121379D01*
X158783006Y-87115005D01*
X158830592Y-86937413D01*
X158830593Y-86937409D01*
X158832086Y-86931836D01*
X158838500Y-86850337D01*
X158838499Y-85869664D01*
X158832086Y-85788164D01*
X158781298Y-85598621D01*
X158692211Y-85423779D01*
X158568720Y-85271280D01*
X158515027Y-85227800D01*
X158465779Y-85187920D01*
X158425427Y-85129506D01*
X158423061Y-85058549D01*
X158459434Y-84997577D01*
X158465779Y-84992080D01*
X158563589Y-84912875D01*
X158568720Y-84908720D01*
X158692211Y-84756221D01*
X158781298Y-84581379D01*
X158783006Y-84575005D01*
X158830592Y-84397413D01*
X158830593Y-84397409D01*
X158832086Y-84391836D01*
X158838500Y-84310337D01*
X158838499Y-83329664D01*
X158832086Y-83248164D01*
X158781298Y-83058621D01*
X158692211Y-82883779D01*
X158568720Y-82731280D01*
X158515027Y-82687800D01*
X158465779Y-82647920D01*
X158425427Y-82589506D01*
X158423061Y-82518549D01*
X158459434Y-82457577D01*
X158465779Y-82452080D01*
X158563589Y-82372875D01*
X158568720Y-82368720D01*
X158692211Y-82216221D01*
X158781298Y-82041379D01*
X158783006Y-82035005D01*
X158830592Y-81857413D01*
X158830593Y-81857409D01*
X158832086Y-81851836D01*
X158838500Y-81770337D01*
X158838499Y-80789664D01*
X158832086Y-80708164D01*
X158781298Y-80518621D01*
X158692211Y-80343779D01*
X158568720Y-80191280D01*
X158465380Y-80107597D01*
X158425030Y-80049185D01*
X158422664Y-79978228D01*
X158459037Y-79917256D01*
X158465381Y-79911759D01*
X158563238Y-79832515D01*
X158572515Y-79823238D01*
X158687636Y-79681077D01*
X158694786Y-79670066D01*
X158777832Y-79507079D01*
X158782536Y-79494825D01*
X158830095Y-79317334D01*
X158832042Y-79306001D01*
X158837807Y-79232754D01*
X158838000Y-79227828D01*
X158838000Y-79012115D01*
X158833525Y-78996876D01*
X158832135Y-78995671D01*
X158824452Y-78994000D01*
X154812000Y-78994000D01*
X154743879Y-78973998D01*
X154697386Y-78920342D01*
X154686000Y-78868000D01*
X154686000Y-78612000D01*
X154706002Y-78543879D01*
X154759658Y-78497386D01*
X154812000Y-78486000D01*
X158819884Y-78486000D01*
X158835123Y-78481525D01*
X158836328Y-78480135D01*
X158837999Y-78472452D01*
X158837999Y-78252175D01*
X158837805Y-78247244D01*
X158832042Y-78173997D01*
X158830095Y-78162668D01*
X158782536Y-77985175D01*
X158777832Y-77972921D01*
X158694786Y-77809934D01*
X158687636Y-77798923D01*
X158572515Y-77656762D01*
X158563238Y-77647485D01*
X158421077Y-77532364D01*
X158410063Y-77525212D01*
X158333507Y-77486205D01*
X158281891Y-77437458D01*
X158264825Y-77368543D01*
X158287725Y-77301341D01*
X158317540Y-77271360D01*
X158355654Y-77244174D01*
X158355661Y-77244168D01*
X158359860Y-77241173D01*
X158518096Y-77083489D01*
X158577594Y-77000689D01*
X158645435Y-76906277D01*
X158648453Y-76902077D01*
X158669320Y-76859857D01*
X158745136Y-76706453D01*
X158745137Y-76706451D01*
X158747430Y-76701811D01*
X158812370Y-76488069D01*
X158841529Y-76266590D01*
X158843156Y-76200000D01*
X158824852Y-75977361D01*
X158770431Y-75760702D01*
X158681354Y-75555840D01*
X158560014Y-75368277D01*
X158409670Y-75203051D01*
X158405619Y-75199852D01*
X158405615Y-75199848D01*
X158238414Y-75067800D01*
X158238410Y-75067798D01*
X158234359Y-75064598D01*
X158193053Y-75041796D01*
X158143084Y-74991364D01*
X158128312Y-74921921D01*
X158153428Y-74855516D01*
X158180780Y-74828909D01*
X158224603Y-74797650D01*
X158359860Y-74701173D01*
X158518096Y-74543489D01*
X158577594Y-74460689D01*
X158645435Y-74366277D01*
X158648453Y-74362077D01*
X158669320Y-74319857D01*
X158745136Y-74166453D01*
X158745137Y-74166451D01*
X158747430Y-74161811D01*
X158812370Y-73948069D01*
X158841529Y-73726590D01*
X158843156Y-73660000D01*
X158824852Y-73437361D01*
X158770431Y-73220702D01*
X158681354Y-73015840D01*
X158560014Y-72828277D01*
X158409670Y-72663051D01*
X158405619Y-72659852D01*
X158405615Y-72659848D01*
X158238414Y-72527800D01*
X158238410Y-72527798D01*
X158234359Y-72524598D01*
X158193053Y-72501796D01*
X158143084Y-72451364D01*
X158128312Y-72381921D01*
X158153428Y-72315516D01*
X158180780Y-72288909D01*
X158224603Y-72257650D01*
X158359860Y-72161173D01*
X158518096Y-72003489D01*
X158577594Y-71920689D01*
X158645435Y-71826277D01*
X158648453Y-71822077D01*
X158669320Y-71779857D01*
X158745136Y-71626453D01*
X158745137Y-71626451D01*
X158747430Y-71621811D01*
X158812370Y-71408069D01*
X158841529Y-71186590D01*
X158843156Y-71120000D01*
X158824852Y-70897361D01*
X158770431Y-70680702D01*
X158681354Y-70475840D01*
X158576199Y-70313295D01*
X158562822Y-70292617D01*
X158562820Y-70292614D01*
X158560014Y-70288277D01*
X158409670Y-70123051D01*
X158405619Y-70119852D01*
X158405615Y-70119848D01*
X158238414Y-69987800D01*
X158238410Y-69987798D01*
X158234359Y-69984598D01*
X158038789Y-69876638D01*
X158033920Y-69874914D01*
X158033916Y-69874912D01*
X157833087Y-69803795D01*
X157833083Y-69803794D01*
X157828212Y-69802069D01*
X157823119Y-69801162D01*
X157823116Y-69801161D01*
X157613373Y-69763800D01*
X157613367Y-69763799D01*
X157608284Y-69762894D01*
X157534452Y-69761992D01*
X157390081Y-69760228D01*
X157390079Y-69760228D01*
X157384911Y-69760165D01*
X157164091Y-69793955D01*
X156951756Y-69863357D01*
X156753607Y-69966507D01*
X156749474Y-69969610D01*
X156749471Y-69969612D01*
X156725247Y-69987800D01*
X156574965Y-70100635D01*
X156420629Y-70262138D01*
X156313201Y-70419621D01*
X156258293Y-70464621D01*
X156187768Y-70472792D01*
X156124021Y-70441538D01*
X156103324Y-70417054D01*
X156022822Y-70292617D01*
X156022820Y-70292614D01*
X156020014Y-70288277D01*
X155869670Y-70123051D01*
X155865619Y-70119852D01*
X155865615Y-70119848D01*
X155698414Y-69987800D01*
X155698410Y-69987798D01*
X155694359Y-69984598D01*
X155498789Y-69876638D01*
X155493920Y-69874914D01*
X155493916Y-69874912D01*
X155293087Y-69803795D01*
X155293083Y-69803794D01*
X155288212Y-69802069D01*
X155283119Y-69801162D01*
X155283116Y-69801161D01*
X155073373Y-69763800D01*
X155073367Y-69763799D01*
X155068284Y-69762894D01*
X154994452Y-69761992D01*
X154850081Y-69760228D01*
X154850079Y-69760228D01*
X154844911Y-69760165D01*
X154624091Y-69793955D01*
X154411756Y-69863357D01*
X154213607Y-69966507D01*
X154209474Y-69969610D01*
X154209471Y-69969612D01*
X154185247Y-69987800D01*
X154034965Y-70100635D01*
X153880629Y-70262138D01*
X153773201Y-70419621D01*
X153718293Y-70464621D01*
X153647768Y-70472792D01*
X153584021Y-70441538D01*
X153563324Y-70417054D01*
X153482822Y-70292617D01*
X153482820Y-70292614D01*
X153480014Y-70288277D01*
X153329670Y-70123051D01*
X153325619Y-70119852D01*
X153325615Y-70119848D01*
X153158414Y-69987800D01*
X153158410Y-69987798D01*
X153154359Y-69984598D01*
X152958789Y-69876638D01*
X152953920Y-69874914D01*
X152953916Y-69874912D01*
X152753087Y-69803795D01*
X152753083Y-69803794D01*
X152748212Y-69802069D01*
X152743119Y-69801162D01*
X152743116Y-69801161D01*
X152533373Y-69763800D01*
X152533367Y-69763799D01*
X152528284Y-69762894D01*
X152454452Y-69761992D01*
X152310081Y-69760228D01*
X152310079Y-69760228D01*
X152304911Y-69760165D01*
X152084091Y-69793955D01*
X151871756Y-69863357D01*
X151673607Y-69966507D01*
X151669474Y-69969610D01*
X151669471Y-69969612D01*
X151645247Y-69987800D01*
X151494965Y-70100635D01*
X151340629Y-70262138D01*
X151233201Y-70419621D01*
X151178293Y-70464621D01*
X151107768Y-70472792D01*
X151044021Y-70441538D01*
X151023324Y-70417054D01*
X150942822Y-70292617D01*
X150942820Y-70292614D01*
X150940014Y-70288277D01*
X150789670Y-70123051D01*
X150785619Y-70119852D01*
X150785615Y-70119848D01*
X150618414Y-69987800D01*
X150618410Y-69987798D01*
X150614359Y-69984598D01*
X150418789Y-69876638D01*
X150413920Y-69874914D01*
X150413916Y-69874912D01*
X150213087Y-69803795D01*
X150213083Y-69803794D01*
X150208212Y-69802069D01*
X150203119Y-69801162D01*
X150203116Y-69801161D01*
X149993373Y-69763800D01*
X149993367Y-69763799D01*
X149988284Y-69762894D01*
X149914452Y-69761992D01*
X149770081Y-69760228D01*
X149770079Y-69760228D01*
X149764911Y-69760165D01*
X149544091Y-69793955D01*
X149331756Y-69863357D01*
X149133607Y-69966507D01*
X149129474Y-69969610D01*
X149129471Y-69969612D01*
X149105247Y-69987800D01*
X148954965Y-70100635D01*
X148800629Y-70262138D01*
X148693201Y-70419621D01*
X148638293Y-70464621D01*
X148567768Y-70472792D01*
X148504021Y-70441538D01*
X148483324Y-70417054D01*
X148402822Y-70292617D01*
X148402820Y-70292614D01*
X148400014Y-70288277D01*
X148249670Y-70123051D01*
X148245619Y-70119852D01*
X148245615Y-70119848D01*
X148078414Y-69987800D01*
X148078410Y-69987798D01*
X148074359Y-69984598D01*
X147878789Y-69876638D01*
X147873920Y-69874914D01*
X147873916Y-69874912D01*
X147673087Y-69803795D01*
X147673083Y-69803794D01*
X147668212Y-69802069D01*
X147663119Y-69801162D01*
X147663116Y-69801161D01*
X147453373Y-69763800D01*
X147453367Y-69763799D01*
X147448284Y-69762894D01*
X147374452Y-69761992D01*
X147230081Y-69760228D01*
X147230079Y-69760228D01*
X147224911Y-69760165D01*
X147004091Y-69793955D01*
X146791756Y-69863357D01*
X146593607Y-69966507D01*
X146589474Y-69969610D01*
X146589471Y-69969612D01*
X146565247Y-69987800D01*
X146414965Y-70100635D01*
X146260629Y-70262138D01*
X146153201Y-70419621D01*
X146098293Y-70464621D01*
X146027768Y-70472792D01*
X145964021Y-70441538D01*
X145943324Y-70417054D01*
X145862822Y-70292617D01*
X145862820Y-70292614D01*
X145860014Y-70288277D01*
X145709670Y-70123051D01*
X145705619Y-70119852D01*
X145705615Y-70119848D01*
X145538414Y-69987800D01*
X145538410Y-69987798D01*
X145534359Y-69984598D01*
X145338789Y-69876638D01*
X145333920Y-69874914D01*
X145333916Y-69874912D01*
X145133087Y-69803795D01*
X145133083Y-69803794D01*
X145128212Y-69802069D01*
X145123119Y-69801162D01*
X145123116Y-69801161D01*
X144913373Y-69763800D01*
X144913367Y-69763799D01*
X144908284Y-69762894D01*
X144834452Y-69761992D01*
X144690081Y-69760228D01*
X144690079Y-69760228D01*
X144684911Y-69760165D01*
X144464091Y-69793955D01*
X144251756Y-69863357D01*
X144053607Y-69966507D01*
X144049474Y-69969610D01*
X144049471Y-69969612D01*
X144025247Y-69987800D01*
X143874965Y-70100635D01*
X143720629Y-70262138D01*
X143613201Y-70419621D01*
X143558293Y-70464621D01*
X143487768Y-70472792D01*
X143424021Y-70441538D01*
X143403324Y-70417054D01*
X143322822Y-70292617D01*
X143322820Y-70292614D01*
X143320014Y-70288277D01*
X143169670Y-70123051D01*
X143165619Y-70119852D01*
X143165615Y-70119848D01*
X142998414Y-69987800D01*
X142998410Y-69987798D01*
X142994359Y-69984598D01*
X142798789Y-69876638D01*
X142793920Y-69874914D01*
X142793916Y-69874912D01*
X142593087Y-69803795D01*
X142593083Y-69803794D01*
X142588212Y-69802069D01*
X142583119Y-69801162D01*
X142583116Y-69801161D01*
X142373373Y-69763800D01*
X142373367Y-69763799D01*
X142368284Y-69762894D01*
X142294452Y-69761992D01*
X142150081Y-69760228D01*
X142150079Y-69760228D01*
X142144911Y-69760165D01*
X141924091Y-69793955D01*
X141711756Y-69863357D01*
X141513607Y-69966507D01*
X141509474Y-69969610D01*
X141509471Y-69969612D01*
X141485247Y-69987800D01*
X141334965Y-70100635D01*
X141180629Y-70262138D01*
X141054743Y-70446680D01*
X141026223Y-70508122D01*
X140977140Y-70613863D01*
X140960688Y-70649305D01*
X140900989Y-70864570D01*
X140877251Y-71086695D01*
X140877548Y-71091848D01*
X140877548Y-71091851D01*
X140883011Y-71186590D01*
X140890110Y-71309715D01*
X140891247Y-71314761D01*
X140891248Y-71314767D01*
X140911119Y-71402939D01*
X140939222Y-71527639D01*
X141023266Y-71734616D01*
X141074019Y-71817438D01*
X141137291Y-71920688D01*
X141139987Y-71925088D01*
X141286250Y-72093938D01*
X141458126Y-72236632D01*
X141528595Y-72277811D01*
X141531445Y-72279476D01*
X141580169Y-72331114D01*
X141593240Y-72400897D01*
X141566509Y-72466669D01*
X141526055Y-72500027D01*
X141513607Y-72506507D01*
X141509474Y-72509610D01*
X141509471Y-72509612D01*
X141485247Y-72527800D01*
X141334965Y-72640635D01*
X141180629Y-72802138D01*
X141054743Y-72986680D01*
X140960688Y-73189305D01*
X140900989Y-73404570D01*
X140877251Y-73626695D01*
X140877548Y-73631848D01*
X140877548Y-73631851D01*
X140883011Y-73726590D01*
X140890110Y-73849715D01*
X140891247Y-73854761D01*
X140891248Y-73854767D01*
X140911119Y-73942939D01*
X140939222Y-74067639D01*
X141023266Y-74274616D01*
X141074019Y-74357438D01*
X141137291Y-74460688D01*
X141139987Y-74465088D01*
X141286250Y-74633938D01*
X141458126Y-74776632D01*
X141528595Y-74817811D01*
X141531445Y-74819476D01*
X141580169Y-74871114D01*
X141593240Y-74940897D01*
X141566509Y-75006669D01*
X141526055Y-75040027D01*
X141513607Y-75046507D01*
X141509474Y-75049610D01*
X141509471Y-75049612D01*
X141485247Y-75067800D01*
X141334965Y-75180635D01*
X141180629Y-75342138D01*
X141054743Y-75526680D01*
X140960688Y-75729305D01*
X140900989Y-75944570D01*
X140877251Y-76166695D01*
X140877548Y-76171848D01*
X140877548Y-76171851D01*
X140883011Y-76266590D01*
X140890110Y-76389715D01*
X140891247Y-76394761D01*
X140891248Y-76394767D01*
X140911119Y-76482939D01*
X140939222Y-76607639D01*
X141023266Y-76814616D01*
X141074019Y-76897438D01*
X141137291Y-77000688D01*
X141139987Y-77005088D01*
X141286250Y-77173938D01*
X141458126Y-77316632D01*
X141490764Y-77335704D01*
X141531445Y-77359476D01*
X141580169Y-77411114D01*
X141593240Y-77480897D01*
X141566509Y-77546669D01*
X141526055Y-77580027D01*
X141513607Y-77586507D01*
X141509474Y-77589610D01*
X141509471Y-77589612D01*
X141339100Y-77717530D01*
X141334965Y-77720635D01*
X141180629Y-77882138D01*
X141177720Y-77886403D01*
X141177714Y-77886411D01*
X141118701Y-77972921D01*
X141054743Y-78066680D01*
X140960688Y-78269305D01*
X140900989Y-78484570D01*
X140877251Y-78706695D01*
X140890110Y-78929715D01*
X140891247Y-78934761D01*
X140891248Y-78934767D01*
X140908680Y-79012115D01*
X140939222Y-79147639D01*
X141023266Y-79354616D01*
X141074942Y-79438944D01*
X141137291Y-79540688D01*
X141139987Y-79545088D01*
X141286250Y-79713938D01*
X141458126Y-79856632D01*
X141528595Y-79897811D01*
X141531445Y-79899476D01*
X141580169Y-79951114D01*
X141593240Y-80020897D01*
X141566509Y-80086669D01*
X141526055Y-80120027D01*
X141513607Y-80126507D01*
X141509474Y-80129610D01*
X141509471Y-80129612D01*
X141347134Y-80251498D01*
X141334965Y-80260635D01*
X141180629Y-80422138D01*
X141054743Y-80606680D01*
X140960688Y-80809305D01*
X140900989Y-81024570D01*
X140877251Y-81246695D01*
X140890110Y-81469715D01*
X140891247Y-81474761D01*
X140891248Y-81474767D01*
X140915304Y-81581508D01*
X140939222Y-81687639D01*
X140972802Y-81770337D01*
X141008160Y-81857413D01*
X141023266Y-81894616D01*
X141074942Y-81978944D01*
X141137291Y-82080688D01*
X141139987Y-82085088D01*
X141286250Y-82253938D01*
X141458126Y-82396632D01*
X141528595Y-82437811D01*
X141531445Y-82439476D01*
X141580169Y-82491114D01*
X141593240Y-82560897D01*
X141566509Y-82626669D01*
X141526055Y-82660027D01*
X141513607Y-82666507D01*
X141509474Y-82669610D01*
X141509471Y-82669612D01*
X141347134Y-82791498D01*
X141334965Y-82800635D01*
X141180629Y-82962138D01*
X141054743Y-83146680D01*
X140960688Y-83349305D01*
X140900989Y-83564570D01*
X140877251Y-83786695D01*
X140890110Y-84009715D01*
X140891247Y-84014761D01*
X140891248Y-84014767D01*
X140915304Y-84121508D01*
X140939222Y-84227639D01*
X140972802Y-84310337D01*
X141008160Y-84397413D01*
X141023266Y-84434616D01*
X141074942Y-84518944D01*
X141137291Y-84620688D01*
X141139987Y-84625088D01*
X141286250Y-84793938D01*
X141458126Y-84936632D01*
X141528595Y-84977811D01*
X141531445Y-84979476D01*
X141580169Y-85031114D01*
X141593240Y-85100897D01*
X141566509Y-85166669D01*
X141526055Y-85200027D01*
X141513607Y-85206507D01*
X141509474Y-85209610D01*
X141509471Y-85209612D01*
X141347134Y-85331498D01*
X141334965Y-85340635D01*
X141180629Y-85502138D01*
X141054743Y-85686680D01*
X140960688Y-85889305D01*
X140900989Y-86104570D01*
X140877251Y-86326695D01*
X140890110Y-86549715D01*
X140891247Y-86554761D01*
X140891248Y-86554767D01*
X140915304Y-86661508D01*
X140939222Y-86767639D01*
X140972802Y-86850337D01*
X141008160Y-86937413D01*
X141023266Y-86974616D01*
X141074942Y-87058944D01*
X141137291Y-87160688D01*
X141139987Y-87165088D01*
X141286250Y-87333938D01*
X141458126Y-87476632D01*
X141528595Y-87517811D01*
X141531445Y-87519476D01*
X141580169Y-87571114D01*
X141593240Y-87640897D01*
X141566509Y-87706669D01*
X141526055Y-87740027D01*
X141513607Y-87746507D01*
X141509474Y-87749610D01*
X141509471Y-87749612D01*
X141405505Y-87827672D01*
X141334965Y-87880635D01*
X141180629Y-88042138D01*
X141054743Y-88226680D01*
X140960688Y-88429305D01*
X140900989Y-88644570D01*
X140877251Y-88866695D01*
X140877548Y-88871848D01*
X140877548Y-88871851D01*
X140883011Y-88966590D01*
X140890110Y-89089715D01*
X140891247Y-89094761D01*
X140891248Y-89094767D01*
X140911119Y-89182939D01*
X140939222Y-89307639D01*
X141023266Y-89514616D01*
X141074019Y-89597438D01*
X141137291Y-89700688D01*
X141139987Y-89705088D01*
X141286250Y-89873938D01*
X141458126Y-90016632D01*
X141490172Y-90035358D01*
X141531445Y-90059476D01*
X141580169Y-90111114D01*
X141593240Y-90180897D01*
X141566509Y-90246669D01*
X141526055Y-90280027D01*
X141513607Y-90286507D01*
X141509474Y-90289610D01*
X141509471Y-90289612D01*
X141339100Y-90417530D01*
X141334965Y-90420635D01*
X141180629Y-90582138D01*
X141177720Y-90586403D01*
X141177714Y-90586411D01*
X141114813Y-90678621D01*
X141054743Y-90766680D01*
X140960688Y-90969305D01*
X140900989Y-91184570D01*
X140877251Y-91406695D01*
X140877548Y-91411848D01*
X140877548Y-91411851D01*
X140883011Y-91506590D01*
X140890110Y-91629715D01*
X140891247Y-91634761D01*
X140891248Y-91634767D01*
X140911119Y-91722939D01*
X140939222Y-91847639D01*
X141023266Y-92054616D01*
X141074019Y-92137438D01*
X141137291Y-92240688D01*
X141139987Y-92245088D01*
X141286250Y-92413938D01*
X141458126Y-92556632D01*
X141507798Y-92585658D01*
X141531445Y-92599476D01*
X141580169Y-92651114D01*
X141593240Y-92720897D01*
X141566509Y-92786669D01*
X141526055Y-92820027D01*
X141513607Y-92826507D01*
X141509474Y-92829610D01*
X141509471Y-92829612D01*
X141339100Y-92957530D01*
X141334965Y-92960635D01*
X141180629Y-93122138D01*
X141177720Y-93126403D01*
X141177714Y-93126411D01*
X141114813Y-93218621D01*
X141054743Y-93306680D01*
X140960688Y-93509305D01*
X140900989Y-93724570D01*
X140877251Y-93946695D01*
X140208500Y-93946695D01*
X140208500Y-70822817D01*
X140228502Y-70754696D01*
X140245405Y-70733722D01*
X142473722Y-68505405D01*
X142536034Y-68471379D01*
X142562817Y-68468500D01*
X157437183Y-68468500D01*
X157505304Y-68488502D01*
G37*
G04 #@! TD.AperFunction*
M02*
